<svg xmlns="http://www.w3.org/2000/svg" xmlns:xlink="http://www.w3.org/1999/xlink"><symbol id="sprite-boots" fill="none" viewBox="0 0 22 22"><g fill="#0266C1"><path d="M20.72 14.24c.62-2.1.1-4.47-.44-6.12a.4.4 0 0 0-.05-.18 15 15 0 0 0-.5-1.29.8.8 0 0 0 .45-.7v-3.19c0-.42-.32-.76-.71-.76h-8.73c-.2 0-.36.17-.36.38v.02c.12 2.3-.03 3.86-.48 4.95l-.03.04v.05a4 4 0 0 1-.69 1.08l-.03.03v.02a5 5 0 0 1-1.42 1.04q-1.37.65-2.8 1.12l-.18.07c-3.32 1.18-3.76 3.33-3.75 4.4v2.78q.01.21.17.33a10 10 0 0 0 2.61 1.21c.19.06.39-.06.44-.26l.01-.12v-.09h.52v.38a.4.4 0 0 0 .3.39q.47.08.92.12a.3.3 0 0 0 .27-.1.4.4 0 0 0 .11-.28v-.49h.53v.55c0 .2.16.38.35.38q.44.01.92-.05c.18-.01.32-.18.32-.38v-.5h.53v.34c0 .21.15.39.35.39h.06a11 11 0 0 0 1.92-.5l.06-.03c2.48-1.53 4.06-.27 4.12-.21a.3.3 0 0 0 .22.08h.44c.2 0 .35-.18.35-.39v-.64h.51v.64c0 .2.16.38.36.38h1.14c.2 0 .36-.17.36-.38v-.64h.52v.64c0 .2.16.38.36.38h.87c.2 0 .36-.17.36-.38v-4.12a.4.4 0 0 0-.29-.39m-8.42-11.47h7.16v3.17h-7.16zm-4.46 7.62v.03q.44.38.8.84a1 1 0 0 0-.1.38c0 .4.3.74.68.74s.68-.32.68-.73c0-.38-.26-.7-.62-.73a6 6 0 0 0-.76-.9q.48-.3.9-.68.51.52.95 1.12c-.12.38.06.8.42.93.35.13.74-.07.86-.45a.75.75 0 0 0-.41-.93l-.23-.04h-.09a11 11 0 0 0-1.01-1.2q.25-.33.44-.71.83.46 1.6 1.03c0 .4.3.74.67.75.38 0 .7-.33.7-.73 0-.41-.3-.75-.68-.75a1 1 0 0 0-.32.08 16 16 0 0 0-1.67-1.07c.39-1.1.56-2.58.48-4.58h.46v3.16c0 .43.32.77.71.77h6.66q.15.31.42 1.01h-.15c-2.16.02-3.9 1.91-3.88 4.24.01 1.32.6 2.55 1.58 3.34-2.87.81-7.2 1.78-10.83 1.53.67-2.89-.13-4.66-.65-5.44a23 23 0 0 0 2.39-1m-3.1 1.21c.38.49 1.38 2.12.64 5.12a8.5 8.5 0 0 1-3.64-1.18l-.02-.27v-.02c-.03-.82.25-2.58 3.01-3.65m15.4 6.75v-.63c0-.21-.16-.39-.35-.39h-1.23c-.2 0-.36.18-.36.39v.63h-.44v-.63c0-.21-.15-.39-.35-.39h-1.23c-.2 0-.35.18-.35.39v.62c-.48-.33-2.25-1.27-4.75.24q-.67.23-1.36.38v-.27c0-.2-.16-.38-.36-.38h-1.22c-.2 0-.36.17-.36.38v.53h-.18v-.54c0-.2-.16-.38-.35-.38h-1.24c-.2 0-.35.17-.35.38v.46l-.18-.03v-.43c0-.2-.16-.38-.36-.38h-1.23a.4.4 0 0 0-.35.34 9 9 0 0 1-1.82-.88v-1.37c1.55.89 3.55 1.22 5.69 1.22 5.66 0 12.13-2.33 12.9-2.61v3.35zm-.17-4.03c-.3.1-1.04.38-2.07.68a3.56 3.56 0 0 1-1.48-4.6 3.2 3.2 0 0 1 2.82-1.94l.42.02v.02c.53 1.62 1 3.93.3 5.82"/><path d="M13.66 3.24c-.57 0-1.04.5-1.04 1.1 0 .62.47 1.12 1.04 1.12s1.03-.5 1.03-1.11-.46-1.12-1.03-1.12m0 1.46c-.18 0-.33-.15-.33-.34s.15-.35.33-.35.32.15.32.35-.14.34-.32.34"/></g></symbol><use xlink:href="#sprite-boots" width="22" height="22"/><view id="sprite-boots-view" viewBox="0 0 22 22"/><symbol id="sprite-check" fill="none" viewBox="0 0 24 24"><path stroke="#0266C1" d="m9.55 11.9 2.45 2.45 4.3-4.28m-4.3-8.98a18 18 0 0 1-9.4 1.95 18 18 0 0 0-.14 6.97 18 18 0 0 0 6.17 10.67 18 18 0 0 0 3.37 2.23 18 18 0 0 0 3.37-2.23 18 18 0 0 0 6.17-10.67c.42-2.33.36-4.7-.14-6.97a18 18 0 0 1-9.4-1.95Z"/></symbol><use xlink:href="#sprite-check" width="24" height="24" y="22"/><view id="sprite-check-view" viewBox="0 22 24 24"/><symbol id="sprite-crown" fill="none" viewBox="0 0 22 22"><path stroke="#0266C1" d="M17.69 20h-13.38m16.69-12.89-2.92 9.7h-14.15l-2.93-9.7 5.77 3.5 4.23-8.61 4.23 8.61z"/></symbol><use xlink:href="#sprite-crown" width="22" height="22" y="46"/><view id="sprite-crown-view" viewBox="0 46 22 22"/><symbol id="sprite-leaf" fill="none" viewBox="0 0 22 22"><path stroke="#0266C1" stroke-linecap="round" stroke-linejoin="round" d="M10.69 16.24a9.7 9.7 0 0 0-5.41-6.54 10 10 0 0 0-4.28-.96 9.5 9.5 0 0 0 2.17 5.63 10.2 10.2 0 0 0 7.76 3.63 9 9 0 0 0-.24-1.76m0 0a9.6 9.6 0 0 0-4.02-5.75q.05-.3.13-.61a9.7 9.7 0 0 1 4.2-5.88 9.7 9.7 0 0 1 4.2 5.88q.08.3.13.6a9.6 9.6 0 0 0-4.02 5.76m-.62 0q.21.88.24 1.76h.13q1.27 0 2.48-.3l.02-.02q-1.2.3-2.5.32m.25-1.76a9.7 9.7 0 0 1 5.41-6.54 10 10 0 0 1 4.28-.96 9.5 9.5 0 0 1-2.17 5.63 10.2 10.2 0 0 1-7.76 3.63m.24-1.76a9 9 0 0 0-.24 1.76"/></symbol><use xlink:href="#sprite-leaf" width="22" height="22" y="68"/><view id="sprite-leaf-view" viewBox="0 68 22 22"/><symbol id="sprite-level" fill="none" viewBox="0 0 22 22"><path stroke="#2D383F" stroke-linecap="round" stroke-miterlimit="16" d="M20 21h-3.6v-20h3.6zm-7.2 0v-14.54h-3.6v14.54zm-7.2 0v-9.09h-3.6v9.09z"/></symbol><use xlink:href="#sprite-level" width="22" height="22" y="90"/><view id="sprite-level-view" viewBox="0 90 22 22"/><symbol id="sprite-link-arrow" fill="none" viewBox="0 0 9 14"><path stroke="#2D383F" stroke-width="2" d="m1 13 6-6-6-6"/></symbol><use xlink:href="#sprite-link-arrow" width="9" height="14" y="112"/><view id="sprite-link-arrow-view" viewBox="0 112 9 14"/><symbol id="sprite-mail" fill="none" viewBox="0 0 22 22"><path stroke="#2D383F" stroke-linecap="round" stroke-linejoin="round" d="M21 5.56v10.88c0 .86-.64 1.56-1.43 1.56h-17.14c-.8 0-1.43-.7-1.43-1.56v-10.88m20 0c0-.86-.64-1.56-1.43-1.56h-17.14c-.8 0-1.43.7-1.43 1.56m20 0-8.14 7.6c-1.07 1-2.65 1-3.72 0l-8.14-7.6"/></symbol><use xlink:href="#sprite-mail" width="22" height="22" y="126"/><view id="sprite-mail-view" viewBox="0 126 22 22"/><symbol id="sprite-map" fill="none" viewBox="0 0 25 25"><g fill="#2D383F" clip-path="url(#a)"><path d="M24.17 22.28v-15.58a.46.46 0 0 0-.6-.46v.02l-2.09.65a6 6 0 0 0 .39-1.82 5.1 5.1 0 0 0-10.19 0 6 6 0 0 0 .36 1.74l-3.45-1.23h-.16l-.16.03-7.14 2.78a.5.5 0 0 0-.3.39v15.6a.46.46 0 0 0 .63.43l6.98-2.7 7.97 2.85q.15.05.3 0l7.14-2.24a.5.5 0 0 0 .32-.46m-7.4-21.35a4.17 4.17 0 0 1 4.17 4.16c0 1.81-2.72 6.82-4.17 9.27-1.45-2.47-4.16-7.48-4.16-9.27a4.17 4.17 0 0 1 4.16-4.16m6.49 21.03-6.24 1.95v-3.53a.46.46 0 0 0-.92 0v3.5l-7.2-2.58v-2.96a.46.46 0 0 0-.93 0v2.96l-6.22 2.43v-7.16l2.3-.93a.46.46 0 1 0-.35-.86l-1.95.79v-6.45l6.22-2.4v1.38a.46.46 0 0 0 .93 0v-1.4l3.55 1.27a64 64 0 0 0 3.92 7.55.46.46 0 0 0 .8 0 65 65 0 0 0 3.9-7.5l2.17-.69.02 7.6-2.35.56a.47.47 0 0 0 .1.93h.12l2.13-.52z"/><path d="M16.76 2.4a2.69 2.69 0 1 0 0 5.39 2.69 2.69 0 0 0 0-5.39m0 4.46a1.77 1.77 0 0 1-1.75-1.77h-.02a1.76 1.76 0 1 1 1.77 1.77m-6.06 7.1v.02l-2.24-.97a.5.5 0 0 0-.36 0l-1.9.77a.46.46 0 0 0 .35.86l1.72-.7 2.06.88.18.04a.46.46 0 0 0 .19-.9m7.57 2.66a.46.46 0 0 0-.52-.32v-.04l-1.15.28-1.94-.85a.47.47 0 0 0-.37.86l2.08.92.19.04h.1l1.3-.32a.46.46 0 0 0 .3-.57"/></g><defs><clipPath id="a"><path fill="#fff" d="M0 0h25v25h-25z"/></clipPath></defs></symbol><use xlink:href="#sprite-map" width="25" height="25" y="148"/><view id="sprite-map-view" viewBox="0 148 25 25"/><symbol id="sprite-moon" fill="none" viewBox="0 0 22 22"><path fill="#2D383F" d="M20.53 12.38a.7.7 0 0 0-.6.13 8 8 0 0 1-2.26 1.33 7 7 0 0 1-2.59.47 7.5 7.5 0 0 1-5.31-2.21 7.6 7.6 0 0 1-2.2-5.33q.01-1.32.4-2.5.44-1.23 1.23-2.2a.66.66 0 0 0-.1-.92.7.7 0 0 0-.59-.13 10.3 10.3 0 0 0-5.41 3.64 10.2 10.2 0 0 0-2.1 6.18c0 2.8 1.13 5.34 2.97 7.19a10 10 0 0 0 7.15 2.97c2.35 0 4.52-.82 6.26-2.18a10 10 0 0 0 3.58-5.62c.13-.38-.08-.74-.43-.82m-3.91 5.36a8.7 8.7 0 0 1-5.45 1.9c-2.43 0-4.62-1-6.2-2.59a8.8 8.8 0 0 1-2.6-6.23 8.7 8.7 0 0 1 1.82-5.36 9 9 0 0 1 2.94-2.46 9 9 0 0 0-.84 3.8c0 2.43 1 4.66 2.58 6.25a8.8 8.8 0 0 0 6.24 2.59 9 9 0 0 0 3.04-.54l.97-.4a9 9 0 0 1-2.5 3.04"/></symbol><use xlink:href="#sprite-moon" width="22" height="22" y="173"/><view id="sprite-moon-view" viewBox="0 173 22 22"/><symbol id="sprite-mountain" fill="none" viewBox="0 0 25 25"><g fill="#2D383F" clip-path="url(#a)"><path d="m23.42 24.19-4.05-9.4-3.81-8.88a.48.48 0 0 0-.88 0l-3.4 7.9-1.34 3.1-2.93-6.75a.48.48 0 0 0-.88 0l-2.75 6.36-3.34 7.66a.48.48 0 0 0 .44.67h22.5a.48.48 0 0 0 .43-.66m-8.3-16.9 3.1 7.2h-1.09l-1.96-2.17a.48.48 0 0 0-.76.07l-.73 1.13h-1.23zm-8.54 4.24 2.45 5.66h-1.34a.5.5 0 0 0-.4.22l-.48.76-1.23-1.74a.5.5 0 0 0-.39-.2h-.63zm-5.34 12.37 2.9-6.72h.8l1.5 2.12a.5.5 0 0 0 .38.2.5.5 0 0 0 .4-.21l.73-1.14h1.49l2.48 5.73zm11.73 0-2.5-5.77 1.57-3.65h1.9a.5.5 0 0 0 .4-.23l.54-.81 1.68 1.87q.15.15.36.15h1.7l3.64 8.45zm-5.35-21.82a2.25 2.25 0 0 0-4.35.8v.26a2.25 2.25 0 0 0 .9 4.29l.03.02h3.34a2.68 2.68 0 1 0 .08-5.37m-.05 4.43h-3.34a1.3 1.3 0 1 1-.27-2.59.5.5 0 0 0 .36-.62 1.3 1.3 0 1 1 2.5-.64c.05.25.28.42.54.39h.21a1.73 1.73 0 0 1 0 3.46m16.14-3.87v-.25a2.25 2.25 0 0 0-4.35-.82 2.68 2.68 0 0 0 .1 5.36h3.34a2.25 2.25 0 0 0 .9-4.3m.37 2.32a1.3 1.3 0 0 1-1.25 1.02h-3.34a1.73 1.73 0 0 1 0-3.46h.21a.5.5 0 0 0 .52-.37 1.3 1.3 0 1 1 2.5.65.5.5 0 0 0 .36.62c.7.15 1.15.84 1 1.54"/></g><defs><clipPath id="a"><path fill="#fff" d="M0 0h25v25h-25z"/></clipPath></defs></symbol><use xlink:href="#sprite-mountain" width="25" height="25" y="195"/><view id="sprite-mountain-view" viewBox="0 195 25 25"/><symbol id="sprite-ok" fill="none" viewBox="0 0 9 16"><path fill="#2D383F" d="M4.5 2.42c.92 0 1.66.77 1.66 1.71s-.74 1.7-1.66 1.7-1.66-.76-1.66-1.7.74-1.71 1.66-1.71m0 5.84a4.1 4.1 0 0 0 4.01-4.13c0-2.28-1.8-4.13-4.01-4.13s-4 1.85-4 4.13 1.79 4.13 4 4.13m1.62 3.37a7 7 0 0 0 2.33-1 1.23 1.23 0 0 0 .37-1.66 1.15 1.15 0 0 0-1.62-.38 5 5 0 0 1-5.4 0 1.15 1.15 0 0 0-1.62.38 1.23 1.23 0 0 0 .37 1.66 7 7 0 0 0 2.33 1l-2.24 2.3a1.24 1.24 0 0 0 0 1.71 1.16 1.16 0 0 0 1.66 0l2.2-2.26 2.2 2.26c.46.48 1.2.48 1.66 0a1.24 1.24 0 0 0 0-1.7z"/></symbol><use xlink:href="#sprite-ok" width="9" height="16" y="220"/><view id="sprite-ok-view" viewBox="0 220 9 16"/><symbol id="sprite-path" fill="none" viewBox="0 0 22 22"><g clip-path="url(#a)"><path stroke="#0266C1" stroke-linecap="round" d="M18.14 8.77h-5.35a3.05 3.05 0 0 0-3.04 3.06 3.05 3.05 0 0 0 3.04 3.05h2.32c1.67 0 3.03 1.37 3.03 3.06s-1.36 3.06-3.03 3.06h-11.25m2.85-5.07a2.87 2.87 0 0 0-2.85-2.88 2.87 2.87 0 0 0-2.86 2.88v.1a3 3 0 0 0 .57 1.76l2.28 3.17h.01l2.29-3.16a3 3 0 0 0 .56-1.76zm-2.3-1.19.02.01c.34.17.6.48.68.86a1.28 1.28 0 0 1-1.24 1.56h-.03a1.27 1.27 0 0 1-1.24-1.56 1.3 1.3 0 0 1 .69-.86h.02c.35-.17.75-.17 1.1 0Zm16.59-10.84c0-1.6-1.28-2.9-2.86-2.9s-2.85 1.3-2.85 2.9c0 .62.2 1.24.57 1.74l2.28 3.09h0l2.29-3.09a3 3 0 0 0 .57-1.74Zm-2.31-1.25.04.02a1.23 1.23 0 0 1 .42 1.88l-.01.02a1.3 1.3 0 0 1-.96.45h-.07c-.37 0-.72-.16-.96-.45l-.01-.02a1.23 1.23 0 0 1 .42-1.88l.04-.02a1.3 1.3 0 0 1 1.09 0Z"/></g><defs><clipPath id="a"><path fill="#fff" d="M0 0h22v22h-22z"/></clipPath></defs></symbol><use xlink:href="#sprite-path" width="22" height="22" y="236"/><view id="sprite-path-view" viewBox="0 236 22 22"/><symbol id="sprite-phone" fill="none" viewBox="0 0 22 22"><g clip-path="url(#a)"><path stroke="#2D383F" stroke-linecap="round" stroke-linejoin="round" d="M19.32 20.04a1.7 1.7 0 0 1-1.68.95 18.8 18.8 0 0 1-11.24-5.41 19 19 0 0 1-5.4-11.29 1.7 1.7 0 0 1 .95-1.68l2.75-1.41c1.07-.55 2.36.09 2.73 1.23a19 19 0 0 0 1.3 3.02c.4.76.13 1.74-.66 2.1a1.8 1.8 0 0 0-.52 2.9l3.95 3.98a1.8 1.8 0 0 0 2.9-.53 1.6 1.6 0 0 1 2.21-.72l.6.3q1.14.53 2.33.9c1.16.36 1.81 1.67 1.26 2.75z"/></g><defs><clipPath id="a"><path fill="#fff" d="M0 0h22v22h-22z"/></clipPath></defs></symbol><use xlink:href="#sprite-phone" width="22" height="22" y="258"/><view id="sprite-phone-view" viewBox="0 258 22 22"/><symbol id="sprite-pin_filled" fill="none" viewBox="0 0 22 22"><path fill="#0266C1" fill-rule="evenodd" d="M11 1c4.14 0 7.5 3.2 7.5 7.15v.43c0 1.58-.52 3.12-1.48 4.4l-6 8.01a.02.02 0 0 1-.04 0l-6-8a7.3 7.3 0 0 1-1.48-4.41v-.43c0-3.95 3.36-7.15 7.5-7.15m-1.33 4.76c-.85.39-1.46 1.11-1.66 1.98s0 1.76.59 2.46a3.1 3.1 0 0 0 2.4 1.09 3.1 3.1 0 0 0 2.4-1.1 2.8 2.8 0 0 0 .6-2.45 3 3 0 0 0-1.67-1.98 3.2 3.2 0 0 0-2.66 0" clip-rule="evenodd"/></symbol><use xlink:href="#sprite-pin_filled" width="22" height="22" y="280"/><view id="sprite-pin_filled-view" viewBox="0 280 22 22"/><symbol id="sprite-pin_stroke" fill="none" viewBox="0 0 22 22"><path stroke="#2D383F" stroke-linecap="round" stroke-linejoin="round" d="M18.5 8.15c0-3.95-3.36-7.15-7.5-7.15s-7.5 3.2-7.5 7.15v.43c0 1.58.52 3.12 1.48 4.4l6 8.01h.03l6-8a7.3 7.3 0 0 0 1.49-4.41z"/><path stroke="#2D383F" stroke-linecap="round" stroke-linejoin="round" d="M9.53 5.29a3.5 3.5 0 0 1 2.94 0c.92.42 1.6 1.23 1.82 2.18a3.1 3.1 0 0 1-.65 2.73 3.4 3.4 0 0 1-2.64 1.21c-1.03 0-2-.45-2.64-1.21a3.1 3.1 0 0 1-.65-2.73c.23-.95.9-1.76 1.82-2.18"/></symbol><use xlink:href="#sprite-pin_stroke" width="22" height="22" y="302"/><view id="sprite-pin_stroke-view" viewBox="0 302 22 22"/><symbol id="sprite-reddit" fill="none" viewBox="0 0 14 15"><path fill="#2D383F" d="M8.36 0c-.45 0-.87.24-1.14.6s-.42.78-.53 1.23c-.17.73-.22 1.53-.23 2.26a7 7 0 0 0-3.36 1.1 2 2 0 0 0-1.3-.53c-.5.01-.98.24-1.34.72-.68.92-.6 2.42.19 3.31a5 5 0 0 0-.08.84c0 3.02 2.88 5.47 6.43 5.47s6.43-2.45 6.43-5.47a5 5 0 0 0-.08-.84c.79-.89.87-2.39.19-3.3a1.7 1.7 0 0 0-1.35-.73c-.44 0-.9.2-1.3.54a7 7 0 0 0-3.33-1.11c.02-.67.06-1.37.19-1.9q.12-.49.27-.69c.15-.2.17-.19.34-.19.37 0 .41.13.63.44q.15.23.44.53c.2.19.51.35.84.35v-1.32c-.1 0-.11 0-.17-.06q-.09-.1-.27-.37c-.26-.35-.74-.88-1.47-.88m3.54.12c-.84 0-1.53.83-1.53 1.85 0 1.03.69 1.85 1.53 1.85s1.53-.82 1.53-1.85c0-1.02-.68-1.85-1.53-1.85m0 .66c.55 0 .99.54.99 1.2s-.44 1.18-.99 1.18-.98-.53-.98-1.19.44-1.19.98-1.19m-4.9 4.34c3.02 0 5.57 2.02 5.57 4.41s-2.56 4.42-5.57 4.42-5.57-2.02-5.57-4.42 2.55-4.41 5.57-4.41m-5.17.6q.22 0 .46.12-.83.75-1.28 1.72c-.2-.5-.15-1.14.1-1.48a.9.9 0 0 1 .72-.37m10.35 0a.9.9 0 0 1 .7.37c.26.34.32.97.11 1.48a5 5 0 0 0-1.28-1.72q.24-.12.46-.13m-7.35 1.65c-.54 0-.99.53-.99 1.19s.45 1.19.99 1.19c.55 0 .99-.53.99-1.2 0-.65-.44-1.18-.99-1.18m4.36 0c-.55 0-.99.53-.99 1.19s.44 1.19.99 1.19.99-.53.99-1.2c0-.65-.45-1.18-1-1.18m-4.88 4.04c.35.87 1.42 1.71 2.71 1.71s2.38-.84 2.72-1.7c-.63.48-1.62.82-2.72.82s-2.08-.34-2.7-.83"/></symbol><use xlink:href="#sprite-reddit" width="14" height="15" y="324"/><view id="sprite-reddit-view" viewBox="0 324 14 15"/><symbol id="sprite-shoe" fill="none" viewBox="0 0 25 21"><path fill="#2D383F" d="M24.64 14.27c.78-2.44.14-5.2-.54-7.11a.4.4 0 0 0-.06-.2 17 17 0 0 0-.63-1.5.9.9 0 0 0 .56-.83v-3.7a.9.9 0 0 0-.89-.88h-10.9a.44.44 0 0 0-.45.47c.15 2.66-.04 4.47-.6 5.74l-.04.04v.07a5 5 0 0 1-.86 1.26l-.04.02v.03q-.79.75-1.77 1.2a31 31 0 0 1-3.51 1.3l-.23.08c-4.15 1.38-4.69 3.87-4.68 5.13v3.22q0 .24.21.38a13 13 0 0 0 3.27 1.4.44.44 0 0 0 .56-.44v-.1h.65v.44a.44.44 0 0 0 .37.45q.59.09 1.15.14a.44.44 0 0 0 .48-.44v-.56h.66v.63c0 .24.2.44.44.44q.55.01 1.15-.05a.44.44 0 0 0 .4-.45v-.57h.66v.39a.44.44 0 0 0 .51.44 15 15 0 0 0 2.4-.57l.07-.03c3.11-1.78 5.08-.32 5.16-.25q.12.09.27.09h.55a.44.44 0 0 0 .45-.45v-.75h.63v.74c0 .25.2.45.44.45h1.43a.44.44 0 0 0 .45-.44v-.75h.65v.74c0 .25.2.45.45.45h1.1a.44.44 0 0 0 .44-.44v-4.79a.44.44 0 0 0-.36-.44m-10.53-13.32h8.95v3.67h-8.95zm-5.58 8.85v.02q.55.45 1 .98a1 1 0 0 0-.11.45.85.85 0 1 0 .92-.84q-.42-.58-.95-1.05.6-.34 1.11-.8.65.61 1.2 1.3a.85.85 0 1 0 .8-.56h-.11q-.59-.74-1.27-1.38.32-.4.56-.83 1.03.53 1.99 1.2a.86.86 0 1 0 .47-.77 20 20 0 0 0-2.09-1.23c.49-1.29.7-3 .6-5.33h.58v3.68c0 .49.4.89.89.89h8.31q.19.36.53 1.17h-.18a4.88 4.88 0 0 0-2.88 8.8c-3.6.95-9 2.07-13.54 1.78.84-3.35-.16-5.41-.81-6.32a30 30 0 0 0 2.98-1.16m-3.88 1.41c.48.57 1.73 2.46.82 5.95a11 11 0 0 1-4.56-1.38l-.03-.3v-.04c-.04-.94.32-2.99 3.77-4.23m19.25 7.84v-.74a.44.44 0 0 0-.44-.44h-1.54a.44.44 0 0 0-.45.44v.74h-.54v-.74a.44.44 0 0 0-.45-.44h-1.53a.44.44 0 0 0-.44.44v.72c-.6-.37-2.81-1.47-5.94.28a14 14 0 0 1-1.7.44v-.3a.44.44 0 0 0-.44-.45h-1.53a.44.44 0 0 0-.45.45v.6h-.22v-.62a.44.44 0 0 0-.45-.44h-1.54a.44.44 0 0 0-.44.44v.53l-.23-.03v-.5a.44.44 0 0 0-.44-.44h-1.54a.44.44 0 0 0-.45.39q-1.18-.39-2.26-1.02v-1.59c1.93 1.03 4.44 1.42 7.1 1.42 7.08 0 15.17-2.71 16.13-3.04v3.9zm-.22-4.68c-.37.12-1.3.44-2.58.78a4 4 0 0 1 2.2-7.56v.01c.66 1.89 1.24 4.57.38 6.77"/></symbol><use xlink:href="#sprite-shoe" width="25" height="21" y="339"/><view id="sprite-shoe-view" viewBox="0 339 25 21"/><symbol id="sprite-slider-arrow" fill="none" viewBox="0 0 14 9"><path fill="#fff" d="M13.35 4.85a.5.5 0 0 0 0-.7l-3.18-3.19a.5.5 0 0 0-.7.71l2.82 2.83-2.83 2.83a.5.5 0 1 0 .71.7zm-13.35.15h13v-1h-13z"/></symbol><use xlink:href="#sprite-slider-arrow" width="14" height="9" y="360"/><view id="sprite-slider-arrow-view" viewBox="0 360 14 9"/><symbol id="sprite-star-transparent" fill="none" viewBox="0 0 16 16"><path fill="#fff" fill-rule="evenodd" d="m7.63 10.55 3.19 1.76-.84-3.31 2.68-2.13-3.54-.28-1.49-3.2-1.48 3.2-3.54.28 2.68 2.13-.84 3.3zm-4.71 3.75 1.25-4.92-4.17-3.31 5.49-.43 2.14-4.64 2.15 4.64 5.49.43-4.16 3.31 1.24 4.92-4.71-2.6z" clip-rule="evenodd"/></symbol><use xlink:href="#sprite-star-transparent" width="16" height="16" y="369"/><view id="sprite-star-transparent-view" viewBox="0 369 16 16"/><symbol id="sprite-star-white" fill="none" viewBox="0 0 16 16"><path fill="#fff" d="m7.63 11.7 4.72 2.6-1.25-4.92 4.17-3.31-5.5-.43-2.14-4.64-2.14 4.64-5.49.43 4.17 3.31-1.25 4.92z"/></symbol><use xlink:href="#sprite-star-white" width="16" height="16" y="385"/><view id="sprite-star-white-view" viewBox="0 385 16 16"/><symbol id="sprite-sun" fill="none" viewBox="0 0 22 22"><path fill="#2D383F" d="M14.55 7.46a5 5 0 0 0-3.55-1.49 5 5 0 0 0-3.54 1.49c-.9.9-1.49 2.17-1.49 3.54a5.05 5.05 0 0 0 5.03 5.03 5 5 0 0 0 3.55-1.49c.9-.9 1.48-2.16 1.48-3.54a5 5 0 0 0-1.49-3.54m-.95 6.13a3.7 3.7 0 0 1-2.59 1.06 3.7 3.7 0 0 1-2.6-1.06 3.7 3.7 0 0 1-1.05-2.59 3.7 3.7 0 0 1 1.06-2.6 3.7 3.7 0 0 1 2.59-1.05 3.7 3.7 0 0 1 2.6 1.06 3.7 3.7 0 0 1 1.05 2.59 3.7 3.7 0 0 1-1.06 2.6m6.72-3.29h-2.03a.7.7 0 0 0-.7.69.7.7 0 0 0 .7.69h2.03a.7.7 0 0 0 .69-.69.7.7 0 0 0-.69-.69m-9.31 7.28a.7.7 0 0 0-.69.68v2.04a.7.7 0 0 0 .69.69.7.7 0 0 0 .69-.69v-2.03a.7.7 0 0 0-.69-.7m7.06-.47-1.45-1.45c-.24-.27-.69-.27-.95 0a.67.67 0 0 0 0 .95l1.45 1.45a.67.67 0 0 0 .95 0 .67.67 0 0 0 0-.95m-7.06-16.11a.7.7 0 0 0-.69.69v2.04a.7.7 0 0 0 .69.68.7.7 0 0 0 .69-.69v-2.03a.7.7 0 0 0-.69-.69m7.09 2.94a.67.67 0 0 0-.95 0l-1.46 1.45a.67.67 0 0 0 0 .95c.24.27.69.27.95 0l1.46-1.45a.67.67 0 0 0 0-.95m-14.36 6.37h-2.04a.7.7 0 0 0-.69.69c0 .37.3.69.69.69h2.04a.7.7 0 0 0 .68-.69.7.7 0 0 0-.68-.69m2.59 5.35c-.24-.27-.69-.27-.95 0l-1.46 1.45a.67.67 0 0 0 0 .95.67.67 0 0 0 .95 0l1.46-1.45a.67.67 0 0 0 0-.95m0-10.27-1.46-1.45a.67.67 0 0 0-.95 0 .67.67 0 0 0 0 .95l1.46 1.45a.67.67 0 0 0 .95 0 .67.67 0 0 0 0-.95"/></symbol><use xlink:href="#sprite-sun" width="22" height="22" y="401"/><view id="sprite-sun-view" viewBox="0 401 22 22"/><symbol id="sprite-trees" fill="none" viewBox="0 0 25 25"><path fill="#2D383F" d="m24.6 18.08-4.92-5.61h2.38a.5.5 0 0 0 .4-.8l-3.95-5.19h2a.5.5 0 0 0 .38-.83l-4.82-5.48a.5.5 0 0 0-.75 0l-4.83 5.48a.5.5 0 0 0 .38.83h2.03l-1.22 1.59-3.24-3.7a.5.5 0 0 0-.76 0l-4.12 4.69a.5.5 0 0 0 .38.83h1.58l-3.3 4.32a.5.5 0 0 0 .4.8h1.86l-4.08 4.68a.5.5 0 0 0 .38.83h5.54v3.5c0 .54.44.98.97.98h1.53a.97.97 0 0 0 .98-.97v-3.51h4.16v3.5c0 .55.44.98.97.98h1.53a.97.97 0 0 0 .97-.97v-5.11h6.79a.5.5 0 0 0 .37-.84m-15.8 5.92-1.47.03-.03-3.51h1.5zm5.17-4.48h-12.08l4.1-4.68a.5.5 0 0 0-.39-.84h-1.95l3.3-4.31a.5.5 0 0 0-.4-.8h-1.5l3-3.43 3.01 3.41-2.11 2.8a.5.5 0 0 0 .4.8h2.37l-4.9 5.62a.5.5 0 0 0 .37.83h6.78zm2.47 4.47-1.47.04-.03-5.11h1.5zm.03-6.08h-8.18l4.9-5.61a.5.5 0 0 0-.37-.83h-2.46l3.96-5.18a.5.5 0 0 0-.4-.8h-1.91l3.72-4.23 3.7 4.22h-1.94a.5.5 0 0 0-.4.81l3.94 5.18h-2.44a.5.5 0 0 0-.38.83l4.9 5.61z"/></symbol><use xlink:href="#sprite-trees" width="25" height="25" y="423"/><view id="sprite-trees-view" viewBox="0 423 25 25"/><symbol id="sprite-vk" fill="none" viewBox="0 0 14 8"><path fill="#2D383F" d="m13.93 7.23-.05-.1q-.37-.65-1.4-1.6v-.02l-.02-.01h-.01a8 8 0 0 1-.59-.6q-.23-.3-.1-.6.08-.22.65-.95l.48-.62q1.26-1.68 1.09-2.15l-.04-.07q-.05-.07-.23-.12a1 1 0 0 0-.47-.02l-2.1.01h-.14l-.1.03-.03.02-.03.02-.08.07-.07.13a12 12 0 0 1-.78 1.65q-.27.45-.5.78t-.38.49l-.27.25q-.13.1-.2.08l-.12-.03-.16-.18a1 1 0 0 1-.09-.28 3 3 0 0 1-.02-.65l.01-.3.01-.6.02-.52v-.4l-.02-.34-.08-.23a.4.4 0 0 0-.15-.17l-.24-.1a5 5 0 0 0-.98-.1q-1.36-.01-1.75.18a1 1 0 0 0-.27.22q-.13.16-.04.17.44.07.62.32l.04.08q.05.1.1.34t.07.53q.04.54 0 .91l-.07.6a1 1 0 0 1-.18.5l-.04.04-.2.03q-.1 0-.25-.1a2 2 0 0 1-.3-.28 4 4 0 0 1-.35-.5 9 9 0 0 1-.41-.76l-.12-.21-.3-.6-.33-.75a.5.5 0 0 0-.17-.24l-.04-.02a1 1 0 0 0-.29-.1h-2q-.3 0-.41.15l-.03.04-.02.12q0 .08.04.2.44 1.02.96 1.98.5.96.89 1.54t.77 1.1l.52.67.2.21.18.18q.18.18.52.42.34.25.75.48.41.24.96.39t1.06.12h.84q.26-.02.39-.16l.03-.04.05-.13.03-.2q-.01-.32.04-.57a2 2 0 0 1 .13-.38 1 1 0 0 1 .28-.32l.06-.03q.17-.05.4.12.25.17.45.42l.5.57q.3.31.51.46l.15.1q.14.08.38.15.23.08.4.04l1.87-.03q.28 0 .43-.1.15-.08.18-.2v-.24z"/></symbol><use xlink:href="#sprite-vk" width="14" height="8" y="448"/><view id="sprite-vk-view" viewBox="0 448 14 8"/></svg>